<svg width="64" height="64" viewBox="0 0 64 64" fill="none" xmlns="http://www.w3.org/2000/svg">
<path d="M57.55 21.55C58.45 16.2833 57.4667 12.2333 54.6 9.39999C51.7667 6.56666 47.7667 5.61667 42.6 6.55C39.5333 2.18334 36 0 32 0C27.9667 0 24.4167 2.16667 21.35 6.5C16.1833 5.63333 12.1833 6.59999 9.35001 9.39999C6.48334 12.2667 5.49999 16.3167 6.39999 21.55C2.13333 24.55 0 28.0333 0 32C0 36.0667 2.15001 39.6167 6.45001 42.65C5.58335 47.8167 6.55001 51.8167 9.35001 54.65C12.2167 57.4833 16.2333 58.4833 21.4 57.65C24.4667 61.8833 28 64 32 64C35.9667 64 39.4833 61.8667 42.55 57.6C47.75 58.4667 51.7667 57.4833 54.6 54.65C57.4333 51.8167 58.4 47.8167 57.5 42.65C61.8333 39.6167 64 36.0667 64 32C64 28.0333 61.85 24.55 57.55 21.55ZM53.25 10.75C55.9167 13.4167 56.7833 17.2 55.85 22.1C60.0167 24.9333 62.1 28.2333 62.1 32C62.1 35.7667 60.0167 39.0667 55.85 41.9C56.8167 46.8333 55.9667 50.65 53.3 53.35C50.6333 55.9833 46.8333 56.85 41.9 55.95C39.0333 60.05 35.7333 62.1 32 62.1C28.2667 62.1 24.9833 60.05 22.15 55.95C17.2167 56.85 13.4167 55.9833 10.75 53.35C8.08333 50.65 7.21666 46.8333 8.14999 41.9C3.98333 39.0667 1.89999 35.7667 1.89999 32C1.89999 28.2333 3.98333 24.9333 8.14999 22.1C7.24999 17.1667 8.11667 13.3833 10.75 10.75C13.3833 8.11667 17.15 7.26666 22.05 8.2C24.9167 4 28.2333 1.89999 32 1.89999C35.7667 1.89999 39.0833 4 41.95 8.2C46.8167 7.23333 50.5833 8.08333 53.25 10.75Z" fill="#BDD5DE"/>
<path d="M55.85 22.1C56.7833 17.2 55.9167 13.4167 53.25 10.75C50.5833 8.08336 46.8167 7.23336 41.95 8.20003C39.0833 4.00003 35.7667 1.90002 32 1.90002C28.2333 1.90002 24.9167 4.00003 22.05 8.20003C17.15 7.26669 13.3833 8.1167 10.75 10.75C8.11667 13.3834 7.24999 17.1667 8.14999 22.1C3.98333 24.9334 1.89999 28.2334 1.89999 32C1.89999 35.7667 3.98333 39.0667 8.14999 41.9C7.21666 46.8334 8.08333 50.65 10.75 53.35C13.4167 55.9834 17.2167 56.85 22.15 55.95C24.9833 60.05 28.2667 62.1 32 62.1C35.7333 62.1 39.0333 60.05 41.9 55.95C46.8333 56.85 50.6333 55.9834 53.3 53.35C55.9667 50.65 56.8167 46.8334 55.85 41.9C60.0167 39.0667 62.1 35.7667 62.1 32C62.1 28.2334 60.0167 24.9334 55.85 22.1ZM33 5.25003C33.5667 5.25003 34.0333 5.45004 34.4 5.85004C34.8 6.25004 35 6.7167 35 7.25003C35 7.8167 34.8 8.30003 34.4 8.70003C34.0333 9.06669 33.5667 9.25003 33 9.25003C32.4333 9.25003 31.9667 9.06669 31.6 8.70003C31.2 8.30003 31 7.8167 31 7.25003C31 6.7167 31.2 6.25004 31.6 5.85004C31.9667 5.45004 32.4333 5.25003 33 5.25003ZM48.6 16.45C48.2 16.05 48 15.5667 48 15C48 14.4667 48.2 14 48.6 13.6C48.9667 13.2 49.4333 13 50 13C50.5667 13 51.0333 13.2 51.4 13.6C51.8 14 52 14.4667 52 15C52 15.5667 51.8 16.05 51.4 16.45C51.0333 16.8167 50.5667 17 50 17C49.4333 17 48.9667 16.8167 48.6 16.45ZM51.2 19.85C53.0667 21.7167 54 23.9667 54 26.6C54 29.2334 53.0667 31.4834 51.2 33.35C50.9667 33.5834 50.7167 33.8167 50.45 34.05C51.45 36.3167 51.5333 38.3834 50.7 40.25C49.6667 42.55 47.4833 44.0167 44.15 44.65C43.3833 47.95 41.8 50.0834 39.4 51.05C39.3667 51.05 39.35 51.0667 39.35 51.1C39.0167 51.2 38.6833 51.3 38.35 51.4C38.2167 51.5 38.1 51.6 38 51.7C36.1333 53.5667 33.8833 54.5 31.25 54.5C28.6167 54.5 26.3667 53.5667 24.5 51.7C24.1333 51.3334 23.8167 50.95 23.55 50.55C23.3167 50.45 23.1 50.3334 22.9 50.2L19.85 46.05C19.8167 45.95 19.7833 45.8334 19.75 45.7C19.5833 45.2334 19.45 44.7167 19.35 44.15C18.8833 44.05 18.4333 43.9167 18 43.75C18 43.85 18 43.9334 18 44C18 44.5667 17.8 45.05 17.4 45.45C17.0333 45.8167 16.5667 46 16 46C15.4333 46 14.9667 45.8167 14.6 45.45C14.2 45.05 14 44.5667 14 44C14 43.4667 14.2 43 14.6 42.6C14.7333 42.4334 14.9 42.3167 15.1 42.25C14.1333 41.4834 13.4333 40.55 13 39.45C12.4 37.95 12.3833 36.3834 12.95 34.75C12.8833 34.6834 12.8333 34.6334 12.8 34.6C10.9333 32.7334 10 30.4834 10 27.85C10 25.2167 10.9333 22.9667 12.8 21.1C14.6667 19.2334 16.9167 18.3 19.55 18.3C19.7833 18.3 20.0167 18.3167 20.25 18.35C20.35 18.0167 20.45 17.7 20.55 17.4C20.1833 17 20 16.5334 20 16C20 15.4667 20.2 15 20.6 14.6C20.9667 14.2 21.4333 14 22 14C22.2333 14 22.4667 14.05 22.7 14.15C22.8667 13.9834 23.0667 13.8334 23.3 13.7L24.35 13.1C24.4167 13.0667 24.4833 13.0334 24.55 13C26.95 12.0667 29.5333 12.5334 32.3 14.4C35.2 12.6 37.8333 12.2167 40.2 13.25L43.2 15.8C43.4333 16.2 43.65 16.6334 43.85 17.1C44.05 17.0667 44.25 17.05 44.45 17.05C47.0833 17.05 49.3333 17.9834 51.2 19.85ZM55 30C55.5667 30 56.0333 30.2 56.4 30.6C56.8 31 57 31.4667 57 32C57 32.5667 56.8 33.05 56.4 33.45C56.0333 33.8167 55.5667 34 55 34C54.4333 34 53.9667 33.8167 53.6 33.45C53.2 33.05 53 32.5667 53 32C53 31.4667 53.2 31 53.6 30.6C53.9667 30.2 54.4333 30 55 30ZM46 50C46 50.5667 45.8 51.05 45.4 51.45C45.0333 51.8167 44.5667 52 44 52C43.4333 52 42.9667 51.8167 42.6 51.45C42.2 51.05 42 50.5667 42 50C42 49.4667 42.2 49 42.6 48.6C42.9667 48.2 43.4333 48 44 48C44.5667 48 45.0333 48.2 45.4 48.6C45.8 49 46 49.4667 46 50ZM8 29C8.56667 29 9.03333 29.2 9.39999 29.6C9.79999 30 10 30.4667 10 31C10 31.5667 9.79999 32.05 9.39999 32.45C9.03333 32.8167 8.56667 33 8 33C7.43333 33 6.96667 32.8167 6.60001 32.45C6.20001 32.05 6 31.5667 6 31C6 30.4667 6.20001 30 6.60001 29.6C6.96667 29.2 7.43333 29 8 29ZM28 58C28 57.4667 28.2 57 28.6 56.6C28.9667 56.2 29.4333 56 30 56C30.5667 56 31.0333 56.2 31.4 56.6C31.8 57 32 57.4667 32 58C32 58.5667 31.8 59.05 31.4 59.45C31.0333 59.8167 30.5667 60 30 60C29.4333 60 28.9667 59.8167 28.6 59.45C28.2 59.05 28 58.5667 28 58ZM31.6 49.5C30 50.5334 28.4667 51.1167 27 51.25C28.2333 52.0834 29.65 52.5 31.25 52.5C32.7833 52.5 34.1667 52.1 35.4 51.3C34.1667 51 32.9 50.4 31.6 49.5ZM13.85 22.9C12.6167 24.3 12 25.95 12 27.85C12 29.75 12.6167 31.4 13.85 32.8C14.05 32.4 14.2833 32.0167 14.55 31.65C12.7167 28.7167 12.3167 26.1 13.35 23.8C13.4833 23.4667 13.65 23.1667 13.85 22.9ZM30.65 20.2C30.55 20.2 30.45 20.2167 30.35 20.25C30.2833 20.25 30.2333 20.2667 30.2 20.3C30.1333 20.3 30.0833 20.3167 30.05 20.35C29.9833 20.35 29.9 20.3667 29.8 20.4L29.75 20.45L27.95 21.75C27.65 22.05 27.3833 22.4334 27.15 22.9C27.1167 22.9667 27.0833 23.0167 27.05 23.05C26.9167 23.05 26.8 23.05 26.7 23.05H26.2C25.6333 23.05 25.1167 23.1167 24.65 23.25L22.8 24.35V24.4C22.7667 24.4 22.75 24.4167 22.75 24.45L22.65 24.55C21.6833 25.7167 21.5 27.2667 22.1 29.2C20.5667 30.4334 19.8833 31.8 20.05 33.3C20.15 34.0334 20.4333 34.7 20.9 35.3C21.3333 35.9 21.9667 36.4334 22.8 36.9C22.8667 36.9334 22.9333 36.9667 23 37C22.8667 38.0667 22.95 38.9834 23.25 39.75C23.4833 40.3834 23.8833 40.9167 24.45 41.35C24.4833 41.3834 24.5167 41.4167 24.55 41.45C25.6833 42.3167 27.2 42.4667 29.1 41.9C30.3667 43.4 31.75 44.0834 33.25 43.95C33.35 43.95 33.45 43.9334 33.55 43.9C34.6167 43.7 35.5333 43.0667 36.3 42C36.5 41.7 36.7 41.3834 36.9 41.05C37.2 41.0834 37.5 41.1 37.8 41.1C37.8667 41.2334 38.4333 41.1334 39.5 40.8C40.2 40.5334 40.7833 40.1167 41.25 39.55C41.65 39.05 41.9333 38.5 42.1 37.9C42.1004 37.7313 42.1171 37.5646 42.15 37.4C42.2167 36.8334 42.1833 36.25 42.05 35.65C42.0167 35.3834 41.95 35.1167 41.85 34.85C42.1833 34.55 42.4667 34.2667 42.7 34C42.7333 33.9334 42.7833 33.8834 42.85 33.85C43.6167 32.85 43.9333 31.8 43.8 30.7C43.7667 30.3334 43.6833 30 43.55 29.7V29.65C43.2833 29.05 42.9 28.5167 42.4 28.05C42.3667 28.0167 42.3333 28 42.3 28L42.25 27.95C41.8833 27.6167 41.4333 27.3167 40.9 27.05C40.9 26.95 40.9167 26.8667 40.95 26.8L39.95 23.2C39.8167 23.0667 39.6667 22.9334 39.5 22.8L39.4 22.7C39.0667 22.4334 38.7167 22.2334 38.35 22.1C37.7167 21.8334 36.9833 21.75 36.15 21.85C35.7833 21.8834 35.4167 21.95 35.05 22.05C34.9833 22.05 34.9333 22.0667 34.9 22.1C34.8667 22.1 34.8333 22.1 34.8 22.1C33.5333 20.6334 32.15 20 30.65 20.2ZM28.35 29.8C28.2833 28.9667 28.5 28.3667 29 28C29.5 27.6334 30.1333 27.5834 30.9 27.85C31.4667 27.25 32.0667 26.9834 32.7 27.05C32.8667 27.0834 33.0333 27.15 33.2 27.25C33.6 27.4167 33.9333 27.7667 34.2 28.3C34.5333 28.3 34.8167 28.35 35.05 28.45C35.4167 28.55 35.7167 28.75 35.95 29.05C36.35 29.55 36.4 30.1834 36.1 30.95C36.6 31.4167 36.8667 31.9334 36.9 32.5C36.9 32.6 36.9 32.7 36.9 32.8C36.8 33.3667 36.3833 33.8334 35.65 34.2C35.65 35.1 35.4 35.7334 34.9 36.1C34.4 36.4667 33.7667 36.5 33 36.2C32.4 36.8334 31.8 37.0834 31.2 36.95C30.5667 36.85 30.0833 36.4334 29.75 35.7C29.4833 35.7 29.25 35.6834 29.05 35.65C28.5833 35.55 28.2167 35.3334 27.95 35C27.8833 34.8667 27.8167 34.75 27.75 34.65C27.5833 34.1834 27.6 33.65 27.8 33.05C27.2 32.45 26.95 31.85 27.05 31.25C27.15 30.6167 27.5833 30.1334 28.35 29.8ZM37 24C37.1 24 37.2167 24.0167 37.35 24.05C37.75 24.0834 38.1 24.2667 38.4 24.6C38.7 24.9 38.9 25.25 39 25.65C39 25.75 39 25.8667 39 26C39 26.5667 38.8 27.05 38.4 27.45C38.3667 27.4834 38.3333 27.5167 38.3 27.55C37.9667 27.85 37.55 28 37.05 28H37C36.4333 28 35.9667 27.8167 35.6 27.45C35.2 27.05 35 26.5667 35 26C35 25.4667 35.2 25 35.6 24.6C35.9667 24.2 36.4333 24 37 24ZM26 39C26 38.4667 26.2 38 26.6 37.6C26.9667 37.2 27.4333 37 28 37C28.5667 37 29.0333 37.2 29.4 37.6C29.8 38 30 38.4667 30 39C30 39.2667 29.95 39.5167 29.85 39.75C29.75 40.0167 29.6 40.25 29.4 40.45C29.1 40.75 28.7333 40.9334 28.3 41C28.2 41 28.1 41 28 41C27.4333 41 26.9667 40.8167 26.6 40.45C26.3 40.15 26.1167 39.8167 26.05 39.45C26.0167 39.3167 26 39.1667 26 39ZM44.65 19.85C47.95 20.65 50.05 22.2334 50.95 24.6C51.85 26.9 51.45 29.3667 49.75 32L49.8 31.95C51.2667 30.4834 52 28.7 52 26.6C52 24.5 51.2667 22.7167 49.8 21.25C48.3333 19.7834 46.5667 19.05 44.5 19.05C44.5667 19.3167 44.6167 19.5834 44.65 19.85Z" fill="white"/>
<path d="M28.6 56.6C28.2 57 28 57.4667 28 58C28 58.5667 28.2 59.05 28.6 59.45C28.9667 59.8167 29.4333 60 30 60C30.5667 60 31.0333 59.8167 31.4 59.45C31.8 59.05 32 58.5667 32 58C32 57.4667 31.8 57 31.4 56.6C31.0333 56.2 30.5667 56 30 56C29.4333 56 28.9667 56.2 28.6 56.6ZM45.4 51.45C45.8 51.05 46 50.5667 46 50C46 49.4667 45.8 49 45.4 48.6C45.0333 48.2 44.5667 48 44 48C43.4333 48 42.9667 48.2 42.6 48.6C42.2 49 42 49.4667 42 50C42 50.5667 42.2 51.05 42.6 51.45C42.9667 51.8167 43.4333 52 44 52C44.5667 52 45.0333 51.8167 45.4 51.45ZM23.75 50.65C23.6833 50.6167 23.6167 50.5833 23.55 50.55C23.8167 50.95 24.1333 51.3333 24.5 51.7C26.3667 53.5667 28.6167 54.5 31.25 54.5C33.8833 54.5 36.1333 53.5667 38 51.7C38.1 51.6 38.2167 51.5 38.35 51.4C37.3833 51.5667 36.4 51.5333 35.4 51.3C34.1667 52.1 32.7833 52.5 31.25 52.5C29.65 52.5 28.2333 52.0833 27 51.25C25.8667 51.3167 24.7833 51.1167 23.75 50.65ZM20.25 18.35C20.0167 18.3167 19.7833 18.3 19.55 18.3C16.9167 18.3 14.6667 19.2333 12.8 21.1C10.9333 22.9667 10 25.2167 10 27.85C10 30.4833 10.9333 32.7333 12.8 34.6C12.8333 34.6333 12.8833 34.6833 12.95 34.75C13.15 34.0833 13.45 33.4333 13.85 32.8C12.6167 31.4 12 29.75 12 27.85C12 25.95 12.6167 24.3 13.85 22.9C14.9833 21.0667 17.0167 19.8833 19.95 19.35C20.05 18.9833 20.15 18.65 20.25 18.35ZM22.7 14.15C22.4667 14.05 22.2333 14 22 14C21.4333 14 20.9667 14.2 20.6 14.6C20.2 15 20 15.4667 20 16C20 16.5333 20.1833 17 20.55 17.4C21.05 16 21.7667 14.9167 22.7 14.15ZM49.8 21.25C51.2667 22.7167 52 24.5 52 26.6C52 28.7 51.2667 30.4833 49.8 31.95L49.75 32C49.6833 32.1 49.6167 32.2 49.55 32.3C49.9167 32.9 50.2167 33.4833 50.45 34.05C50.7167 33.8167 50.9667 33.5833 51.2 33.35C53.0667 31.4833 54 29.2333 54 26.6C54 23.9667 53.0667 21.7167 51.2 19.85C49.3333 17.9833 47.0833 17.05 44.45 17.05C44.25 17.05 44.05 17.0667 43.85 17.1C44.1167 17.6667 44.3333 18.3167 44.5 19.05C46.5667 19.05 48.3333 19.7833 49.8 21.25ZM26.6 37.6C26.2 38 26 38.4667 26 39C26 39.1667 26.0167 39.3167 26.05 39.45C26.1167 39.8167 26.3 40.15 26.6 40.45C26.9667 40.8167 27.4333 41 28 41C28.1 41 28.2 41 28.3 41C28.7333 40.9333 29.1 40.75 29.4 40.45C29.6 40.25 29.75 40.0167 29.85 39.75C29.95 39.5167 30 39.2667 30 39C30 38.4667 29.8 38 29.4 37.6C29.0333 37.2 28.5667 37 28 37C27.4333 37 26.9667 37.2 26.6 37.6ZM44.85 33.9C44.8167 33.5667 44.7833 33.2333 44.75 32.9V32.85C44.55 31.6833 44.15 30.6333 43.55 29.7C43.6833 30 43.7667 30.3333 43.8 30.7C43.9333 31.8 43.6167 32.85 42.85 33.85V33.9C42.85 33.9333 42.85 33.9667 42.85 34C42.8167 34.9667 42.7833 35.6333 42.75 36C42.6167 36.6 42.4333 37.1667 42.2 37.7C42.1354 37.7646 42.1021 37.8312 42.1 37.9C41.9333 38.5 41.65 39.05 41.25 39.55C40.7833 40.1167 40.2 40.5333 39.5 40.8C38 41.5333 36.9333 41.9333 36.3 42C35.5333 43.0667 34.6167 43.7 33.55 43.9C34.1167 44 34.7 44.05 35.3 44.05H35.35C35.6833 44.05 36.0333 44.0333 36.4 44C37.2 43.9333 37.9667 43.7667 38.7 43.5C39 43.4 39.3 43.2667 39.6 43.1H39.65C39.95 42.9333 40.2333 42.75 40.5 42.55C41.0667 42.1833 41.5833 41.75 42.05 41.25C43.5167 39.7833 44.4167 38.0833 44.75 36.15C44.8167 35.6167 44.85 35.0667 44.85 34.5C44.85 34.3667 44.85 34.25 44.85 34.15C44.85 34.0833 44.85 34.0333 44.85 34C44.85 33.9667 44.85 33.9333 44.85 33.9ZM48 15C48 15.5667 48.2 16.05 48.6 16.45C48.9667 16.8167 49.4333 17 50 17C50.5667 17 51.0333 16.8167 51.4 16.45C51.8 16.05 52 15.5667 52 15C52 14.4667 51.8 14 51.4 13.6C51.0333 13.2 50.5667 13 50 13C49.4333 13 48.9667 13.2 48.6 13.6C48.2 14 48 14.4667 48 15Z" fill="#D2704C"/>
<path d="M9.39999 29.6C9.03333 29.2 8.56667 29 8 29C7.43333 29 6.96667 29.2 6.60001 29.6C6.20001 30 6 30.4667 6 31C6 31.5667 6.20001 32.05 6.60001 32.45C6.96667 32.8167 7.43333 33 8 33C8.56667 33 9.03333 32.8167 9.39999 32.45C9.79999 32.05 10 31.5667 10 31C10 30.4667 9.79999 30 9.39999 29.6ZM56.4 30.6C56.0333 30.2 55.5667 30 55 30C54.4333 30 53.9667 30.2 53.6 30.6C53.2 31 53 31.4667 53 32C53 32.5667 53.2 33.05 53.6 33.45C53.9667 33.8167 54.4333 34 55 34C55.5667 34 56.0333 33.8167 56.4 33.45C56.8 33.05 57 32.5667 57 32C57 31.4667 56.8 31 56.4 30.6ZM15.1 42.25C14.9 42.3167 14.7333 42.4333 14.6 42.6C14.2 43 14 43.4667 14 44C14 44.5667 14.2 45.05 14.6 45.45C14.9667 45.8167 15.4333 46 16 46C16.5667 46 17.0333 45.8167 17.4 45.45C17.8 45.05 18 44.5667 18 44C18 43.9333 18 43.85 18 43.75C16.8333 43.35 15.8667 42.85 15.1 42.25ZM37.35 24.05C37.2167 24.0167 37.1 24 37 24C36.4333 24 35.9667 24.2 35.6 24.6C35.2 25 35 25.4667 35 26C35 26.5667 35.2 27.05 35.6 27.45C35.9667 27.8167 36.4333 28 37 28H37.05C37.55 28 37.9667 27.85 38.3 27.55C38.3333 27.5167 38.3667 27.4833 38.4 27.45C38.8 27.05 39 26.5667 39 26C39 25.8667 39 25.75 39 25.65C38.9 25.25 38.7 24.9 38.4 24.6C38.1 24.2667 37.75 24.0833 37.35 24.05ZM34.4 5.85001C34.0333 5.45001 33.5667 5.25 33 5.25C32.4333 5.25 31.9667 5.45001 31.6 5.85001C31.2 6.25001 31 6.71667 31 7.25C31 7.81667 31.2 8.3 31.6 8.7C31.9667 9.06666 32.4333 9.25 33 9.25C33.5667 9.25 34.0333 9.06666 34.4 8.7C34.8 8.3 35 7.81667 35 7.25C35 6.71667 34.8 6.25001 34.4 5.85001Z" fill="#F0E0BB"/>
<path d="M50.95 24.6C50.05 22.2333 47.95 20.65 44.65 19.85C44.6167 19.5833 44.5667 19.3167 44.5 19.05C44.3333 18.3167 44.1167 17.6667 43.85 17.1C43.65 16.6333 43.4333 16.2 43.2 15.8L40.2 13.25C37.8333 12.2167 35.2 12.6 32.3 14.4C29.5333 12.5333 26.95 12.0667 24.55 13C24.4833 13.0333 24.4167 13.0667 24.35 13.1L23.3 13.7C23.0666 13.8333 22.8667 13.9833 22.7 14.15C21.7667 14.9167 21.05 16 20.55 17.4C20.45 17.7 20.35 18.0167 20.25 18.35C20.15 18.65 20.05 18.9833 19.95 19.35C17.0167 19.8833 14.9833 21.0667 13.85 22.9C13.65 23.1667 13.4833 23.4667 13.35 23.8C12.3167 26.1 12.7166 28.7167 14.55 31.65C14.2833 32.0167 14.05 32.4 13.85 32.8C13.45 33.4333 13.15 34.0833 12.95 34.75C12.3833 36.3833 12.4 37.95 13 39.45C13.4333 40.55 14.1333 41.4833 15.1 42.25C15.8667 42.85 16.8333 43.35 18 43.75C18.4333 43.9167 18.8833 44.05 19.35 44.15C19.45 44.7167 19.5833 45.2333 19.75 45.7C19.7833 45.8333 19.8167 45.95 19.85 46.05L22.9 50.2C23.1 50.3333 23.3166 50.45 23.55 50.55C23.6166 50.5833 23.6833 50.6167 23.75 50.65C24.7833 51.1167 25.8667 51.3167 27 51.25C28.4667 51.1167 30 50.5333 31.6 49.5C32.9 50.4 34.1667 51 35.4 51.3C36.4 51.5333 37.3833 51.5667 38.35 51.4C38.6833 51.3 39.0167 51.2 39.35 51.1C39.35 51.0667 39.3667 51.05 39.4 51.05C41.8 50.0833 43.3833 47.95 44.15 44.65C47.4833 44.0167 49.6667 42.55 50.7 40.25C51.5333 38.3833 51.45 36.3167 50.45 34.05C50.2167 33.4833 49.9166 32.9 49.55 32.3C49.6166 32.2 49.6833 32.1 49.75 32C51.45 29.3667 51.85 26.9 50.95 24.6ZM44.75 32.9C44.7833 33.2333 44.8167 33.5667 44.85 33.9C44.85 33.9333 44.85 33.9667 44.85 34C44.85 34.0333 44.85 34.0833 44.85 34.15C44.85 34.25 44.85 34.3667 44.85 34.5C44.85 35.0667 44.8167 35.6167 44.75 36.15C44.4167 38.0833 43.5166 39.7833 42.05 41.25C41.5833 41.75 41.0667 42.1833 40.5 42.55C40.2333 42.75 39.95 42.9333 39.65 43.1H39.6C39.3 43.2667 39 43.4 38.7 43.5C37.9667 43.7667 37.2 43.9333 36.4 44C36.0333 44.0333 35.6833 44.05 35.35 44.05H35.3C34.7 44.05 34.1166 44 33.55 43.9C33.45 43.9333 33.35 43.95 33.25 43.95C31.75 44.0833 30.3667 43.4 29.1 41.9C27.2 42.4667 25.6833 42.3167 24.55 41.45C24.5166 41.4167 24.4833 41.3833 24.45 41.35C23.8833 40.9167 23.4833 40.3833 23.25 39.75C22.95 38.9833 22.8667 38.0667 23 37C22.9333 36.9667 22.8666 36.9333 22.8 36.9C21.9666 36.4333 21.3333 35.9 20.9 35.3C20.4333 34.7 20.15 34.0333 20.05 33.3C19.8833 31.8 20.5667 30.4333 22.1 29.2C21.5 27.2667 21.6833 25.7167 22.65 24.55L22.75 24.45C22.75 24.4167 22.7666 24.4 22.8 24.4V24.35L24.65 23.25C25.1167 23.1167 25.6333 23.05 26.2 23.05H26.7C26.8 23.05 26.9166 23.05 27.05 23.05C27.0833 23.0167 27.1167 22.9667 27.15 22.9C27.3833 22.4333 27.65 22.05 27.95 21.75L29.75 20.45L29.8 20.4C29.9 20.3667 29.9833 20.35 30.05 20.35C30.0833 20.3167 30.1333 20.3 30.2 20.3C30.2333 20.2667 30.2833 20.25 30.35 20.25C30.45 20.2167 30.55 20.2 30.65 20.2C32.15 20 33.5333 20.6333 34.8 22.1C34.8333 22.1 34.8667 22.1 34.9 22.1C34.9333 22.0667 34.9833 22.05 35.05 22.05C35.4166 21.95 35.7833 21.8833 36.15 21.85C36.9833 21.75 37.7167 21.8333 38.35 22.1C38.7167 22.2333 39.0667 22.4333 39.4 22.7L39.5 22.8C39.5333 22.8 39.5667 22.8167 39.6 22.85C39.7333 22.95 39.85 23.0667 39.95 23.2L40.95 26.8C40.9167 26.8667 40.9 26.95 40.9 27.05C41.4333 27.3167 41.8833 27.6167 42.25 27.95L42.3 28C42.3333 28 42.3667 28.0167 42.4 28.05C42.9 28.5167 43.2833 29.05 43.55 29.65V29.7C44.15 30.6333 44.55 31.6833 44.75 32.85V32.9ZM37.8 41.1C37.5 41.1 37.2 41.0833 36.9 41.05C36.7 41.3833 36.5 41.7 36.3 42C36.9333 41.9333 38 41.5333 39.5 40.8C38.4333 41.1333 37.8666 41.2333 37.8 41.1ZM42.75 36C42.7833 35.6333 42.8167 34.9667 42.85 34C42.7833 34 42.7333 34 42.7 34C42.4667 34.2667 42.1833 34.55 41.85 34.85C41.95 35.1167 42.0166 35.3833 42.05 35.65C42.1833 36.25 42.2167 36.8333 42.15 37.4C42.15 37.4667 42.1667 37.5667 42.2 37.7C42.4333 37.1667 42.6167 36.6 42.75 36ZM29 28C28.5 28.3667 28.2833 28.9667 28.35 29.8C27.5833 30.1333 27.15 30.6167 27.05 31.25C26.95 31.85 27.2 32.45 27.8 33.05C27.6 33.65 27.5833 34.1833 27.75 34.65C27.8167 34.75 27.8833 34.8667 27.95 35C28.2167 35.3333 28.5833 35.55 29.05 35.65C29.25 35.6833 29.4833 35.7 29.75 35.7C30.0833 36.4333 30.5667 36.85 31.2 36.95C31.8 37.0833 32.4 36.8333 33 36.2C33.7667 36.5 34.4 36.4667 34.9 36.1C35.4 35.7333 35.65 35.1 35.65 34.2C36.3833 33.8333 36.8 33.3667 36.9 32.8C36.9 32.7 36.9 32.6 36.9 32.5C36.8667 31.9333 36.6 31.4167 36.1 30.95C36.4 30.1833 36.35 29.55 35.95 29.05C35.7167 28.75 35.4166 28.55 35.05 28.45C34.8166 28.35 34.5333 28.3 34.2 28.3C33.9333 27.7667 33.6 27.4167 33.2 27.25C33.0333 27.15 32.8667 27.0833 32.7 27.05C32.0667 26.9833 31.4667 27.25 30.9 27.85C30.1333 27.5833 29.5 27.6333 29 28Z" fill="#D9F5FF"/>
</svg>
