<svg width="80" height="80" viewBox="0 0 80 80" fill="none" xmlns="http://www.w3.org/2000/svg">
<path d="M80 14C79.8333 7.33333 76.3167 4 69.45 4H10.5C3.66667 4 0.166667 7.33333 0 14V69.95C0.166667 76.65 3.66667 80 10.5 80H69.45C76.3167 80 79.8333 76.65 80 69.95V14Z" fill="url(#paint0_linear_0_1)"/>
<path d="M80 10.5C80 3.5 76.4833 0 69.45 0H10.5C3.5 0 0 3.5 0 10.5V14C0.166667 7.33333 3.66667 4 10.5 4H69.45C76.3167 4 79.8333 7.33333 80 14V10.5Z" fill="url(#paint1_linear_0_1)"/>
<path d="M26.1615 32.5667C23.3949 32.5667 21.0449 33.55 19.1115 35.5167C17.1449 37.4833 16.1615 39.8333 16.1615 42.5667C16.1615 45.3333 17.1449 47.6833 19.1115 49.6167C21.0449 51.5833 23.3949 52.5667 26.1615 52.5667C28.9282 52.5667 31.2782 51.5833 33.2115 49.6167C35.1782 47.6833 36.1615 45.3333 36.1615 42.5667C36.1615 39.8333 35.1782 37.4833 33.2115 35.5167C31.2782 33.55 28.9282 32.5667 26.1615 32.5667Z" fill="white"/>
<path d="M26.1615 36.5667C24.5282 36.5667 23.1282 37.1667 21.9615 38.3667C20.7615 39.5333 20.1615 40.9333 20.1615 42.5667C20.1615 44.2333 20.7615 45.65 21.9615 46.8167C23.1282 47.9833 24.5282 48.5667 26.1615 48.5667C27.8282 48.5667 29.2449 47.9833 30.4115 46.8167C31.5782 45.65 32.1615 44.2333 32.1615 42.5667C32.1615 40.9333 31.5782 39.5333 30.4115 38.3667C29.2449 37.1667 27.8282 36.5667 26.1615 36.5667Z" fill="#3D465D"/>
<path d="M56.1615 32.5667C53.3949 32.5667 51.0449 33.55 49.1115 35.5167C47.1449 37.4833 46.1615 39.8333 46.1615 42.5667C46.1615 45.3333 47.1449 47.6833 49.1115 49.6167C51.0449 51.5833 53.3949 52.5667 56.1615 52.5667C58.9282 52.5667 61.2782 51.5833 63.2115 49.6167C65.1782 47.6833 66.1615 45.3333 66.1615 42.5667C66.1615 39.8333 65.1782 37.4833 63.2115 35.5167C61.2782 33.55 58.9282 32.5667 56.1615 32.5667Z" fill="white"/>
<path d="M56.1615 36.5667C54.5282 36.5667 53.1282 37.1667 51.9615 38.3667C50.7615 39.5333 50.1615 40.9333 50.1615 42.5667C50.1615 44.2333 50.7615 45.65 51.9615 46.8167C53.1282 47.9833 54.5282 48.5667 56.1615 48.5667C57.8282 48.5667 59.2449 47.9833 60.4115 46.8167C61.5782 45.65 62.1615 44.2333 62.1615 42.5667C62.1615 40.9333 61.5782 39.5333 60.4115 38.3667C59.2449 37.1667 57.8282 36.5667 56.1615 36.5667Z" fill="#3D465D"/>
<path d="M13.5115 25.2667C12.9449 25.4 12.5449 25.7 12.3115 26.1667C12.0115 26.6333 11.9282 27.15 12.0615 27.7167L13.1115 31.5667C13.2449 32.1333 13.5615 32.5333 14.0615 32.7667C14.4949 33.0667 14.9949 33.15 15.5615 33.0167L34.8615 27.8167C35.3949 27.6833 35.8115 27.3667 36.1115 26.8667C36.3782 26.4333 36.4449 25.9333 36.3115 25.3667L35.2615 21.5167C35.1282 20.95 34.8282 20.5333 34.3615 20.2667C33.8615 20 33.3449 19.9333 32.8115 20.0667L13.5115 25.2667Z" fill="#3D465D"/>
<path d="M49.5115 20.0667C48.9782 19.9333 48.4615 20 47.9615 20.2667C47.4949 20.5333 47.1949 20.95 47.0615 21.5167L46.0115 25.3667C45.8782 25.9333 45.9449 26.4333 46.2115 26.8667C46.5115 27.3667 46.9282 27.6833 47.4615 27.8167L66.7615 33.0167C67.3282 33.15 67.8282 33.0667 68.2615 32.7667C68.7615 32.5333 69.0782 32.1333 69.2115 31.5667L70.2615 27.7167C70.3949 27.15 70.3115 26.6333 70.0115 26.1667C69.7782 25.7 69.3782 25.4 68.8115 25.2667L49.5115 20.0667Z" fill="#3D465D"/>
<path d="M50.5115 58.0667C50.1449 57.7667 49.7615 57.4667 49.3615 57.1667C47.0949 55.4333 44.3615 54.5667 41.1615 54.5667C37.8949 54.5667 35.1115 55.4333 32.8115 57.1667C32.8115 57.2 32.7949 57.2167 32.7615 57.2167C32.3282 57.55 31.9615 57.9 31.6615 58.2667C31.2949 58.6667 31.1282 59.15 31.1615 59.7167C31.1949 60.25 31.4282 60.7 31.8615 61.0667C32.2615 61.4333 32.7449 61.6 33.3115 61.5667C33.8449 61.5333 34.2949 61.3167 34.6615 60.9167C34.8282 60.7167 35.0115 60.5333 35.2115 60.3667C36.8449 59.1667 38.8282 58.5667 41.1615 58.5667C43.4282 58.5667 45.3615 59.1667 46.9615 60.3667L47.0115 60.4167C47.3115 60.6167 47.5949 60.8333 47.8615 61.0667C48.2615 61.4333 48.7449 61.6 49.3115 61.5667C49.8449 61.5333 50.2949 61.3167 50.6615 60.9167C51.0282 60.4833 51.1949 60 51.1615 59.4667C51.1282 58.9 50.9115 58.4333 50.5115 58.0667Z" fill="#3D465D"/>
<defs>
<linearGradient id="paint0_linear_0_1" x1="40" y1="-1.09798e-07" x2="40" y2="80" gradientUnits="userSpaceOnUse">
<stop stop-color="#FFCD59"/>
<stop offset="1" stop-color="#F7A41B"/>
</linearGradient>
<linearGradient id="paint1_linear_0_1" x1="39.75" y1="-0.25" x2="39.75" y2="43.25" gradientUnits="userSpaceOnUse">
<stop stop-color="#FFE383"/>
<stop offset="1" stop-color="#FFB43C"/>
</linearGradient>
</defs>
</svg>
