<svg width="80" height="80" viewBox="0 0 80 80" fill="none" xmlns="http://www.w3.org/2000/svg">
<path d="M80 14C79.8333 7.33333 76.3167 4 69.45 4H10.5C3.66667 4 0.166667 7.33333 0 14V69.95C0.166667 76.65 3.66667 80 10.5 80H69.45C76.3167 80 79.8333 76.65 80 69.95V14Z" fill="url(#paint0_linear_0_1)"/>
<path d="M80 10.5C80 3.5 76.4833 0 69.45 0H10.5C3.5 0 0 3.5 0 10.5V14C0.166667 7.33333 3.66667 4 10.5 4H69.45C76.3167 4 79.8333 7.33333 80 14V10.5Z" fill="url(#paint1_linear_0_1)"/>
<path d="M16.3115 31.8615C16.7449 32.1282 17.2449 32.1949 17.8115 32.0615L33.2615 27.9115C33.7949 27.7782 34.2115 27.4782 34.5115 27.0115C34.7449 26.5449 34.7782 26.0282 34.6115 25.4615L34.3615 24.5115C34.2282 23.9449 33.9449 23.5449 33.5115 23.3115C33.0115 23.0115 32.4949 22.9282 31.9615 23.0615L16.5115 27.2115C15.9449 27.3449 15.5449 27.6615 15.3115 28.1615C15.0115 28.5949 14.9282 29.0949 15.0615 29.6615L15.3115 30.6115C15.4782 31.1782 15.8115 31.5949 16.3115 31.8615Z" fill="#3D465D"/>
<path d="M45.1616 27.0615C45.4282 27.5282 45.8282 27.8282 46.3616 27.9615L61.8116 32.1115C62.3782 32.2449 62.8949 32.1949 63.3616 31.9615C63.8282 31.6615 64.1449 31.2282 64.3116 30.6615L64.5616 29.7115C64.6949 29.1449 64.6282 28.6615 64.3616 28.2615C64.0949 27.7282 63.6782 27.3949 63.1116 27.2615L47.6616 23.1115C47.1282 22.9782 46.6282 23.0615 46.1616 23.3615C45.6949 23.5949 45.3949 23.9949 45.2616 24.5615L45.0116 25.5115C44.8449 26.0782 44.8949 26.5949 45.1616 27.0615Z" fill="#3D465D"/>
<path d="M16.8115 36.1115C16.8115 36.6782 17.0115 37.1615 17.4115 37.5615L21.9615 42.1115L17.4115 46.7115C17.0115 47.0782 16.8115 47.5449 16.8115 48.1115C16.8115 48.6782 17.0115 49.1615 17.4115 49.5615C17.7782 49.9282 18.2449 50.1115 18.8115 50.1115C19.3782 50.1115 19.8615 49.9282 20.2615 49.5615L24.8115 44.9615L29.4115 49.5615C29.7782 49.9282 30.2449 50.1115 30.8115 50.1115C31.3782 50.1115 31.8615 49.9282 32.2615 49.5615C32.6282 49.1615 32.8115 48.6782 32.8115 48.1115C32.8115 47.5449 32.6282 47.0782 32.2615 46.7115L27.6615 42.1115L32.2615 37.5615C32.6282 37.1615 32.8115 36.6782 32.8115 36.1115C32.8115 35.5449 32.6282 35.0782 32.2615 34.7115C31.8615 34.3115 31.3782 34.1115 30.8115 34.1115C30.2449 34.1115 29.7782 34.3115 29.4115 34.7115L24.8115 39.2615L20.2615 34.7115C19.8615 34.3115 19.3782 34.1115 18.8115 34.1115C18.2449 34.1115 17.7782 34.3115 17.4115 34.7115C17.0115 35.0782 16.8115 35.5449 16.8115 36.1115ZM46.8115 36.1115C46.8115 36.6782 47.0115 37.1615 47.4115 37.5615L51.9615 42.1115L47.4115 46.7115C47.0115 47.0782 46.8115 47.5449 46.8115 48.1115C46.8115 48.6782 47.0115 49.1615 47.4115 49.5615C47.7782 49.9282 48.2449 50.1115 48.8115 50.1115C49.3782 50.1115 49.8615 49.9282 50.2615 49.5615L54.8115 44.9615L59.4115 49.5615C59.7782 49.9282 60.2449 50.1115 60.8115 50.1115C61.3782 50.1115 61.8615 49.9282 62.2615 49.5615C62.6282 49.1615 62.8115 48.6782 62.8115 48.1115C62.8115 47.5449 62.6282 47.0782 62.2615 46.7115L57.6615 42.1115L62.2615 37.5615C62.6282 37.1615 62.8115 36.6782 62.8115 36.1115C62.8115 35.5449 62.6282 35.0782 62.2615 34.7115C61.8615 34.3115 61.3782 34.1115 60.8115 34.1115C60.2449 34.1115 59.7782 34.3115 59.4115 34.7115L54.8115 39.2615L50.2615 34.7115C49.8615 34.3115 49.3782 34.1115 48.8115 34.1115C48.2449 34.1115 47.7782 34.3115 47.4115 34.7115C47.0115 35.0782 46.8115 35.5449 46.8115 36.1115Z" fill="#3D465D"/>
<path d="M45.6615 59.9615C45.9615 60.1615 46.2449 60.3782 46.5115 60.6115C46.9115 60.9782 47.3949 61.1449 47.9615 61.1115C48.4949 61.0782 48.9449 60.8615 49.3115 60.4615C49.6782 60.0282 49.8449 59.5449 49.8115 59.0115C49.7782 58.4449 49.5615 57.9782 49.1615 57.6115C48.7949 57.3115 48.4115 57.0115 48.0115 56.7115C45.7449 54.9782 43.0115 54.1115 39.8115 54.1115C36.5449 54.1115 33.7615 54.9782 31.4615 56.7115C31.4615 56.7449 31.4449 56.7615 31.4115 56.7615C30.9782 57.0949 30.6115 57.4449 30.3115 57.8115C29.9449 58.2115 29.7782 58.6949 29.8115 59.2615C29.8449 59.7949 30.0782 60.2449 30.5115 60.6115C30.9115 60.9782 31.3949 61.1449 31.9615 61.1115C32.4949 61.0782 32.9449 60.8615 33.3115 60.4615C33.4782 60.2615 33.6615 60.0782 33.8615 59.9115C35.4949 58.7115 37.4782 58.1115 39.8115 58.1115C42.0782 58.1115 44.0115 58.7115 45.6115 59.9115L45.6615 59.9615Z" fill="#3D465D"/>
<defs>
<linearGradient id="paint0_linear_0_1" x1="40" y1="-1.09798e-07" x2="40" y2="80" gradientUnits="userSpaceOnUse">
<stop stop-color="#E26081"/>
<stop offset="1" stop-color="#D44947"/>
</linearGradient>
<linearGradient id="paint1_linear_0_1" x1="39.75" y1="-0.25" x2="39.75" y2="43.25" gradientUnits="userSpaceOnUse">
<stop stop-color="#F37F98"/>
<stop offset="1" stop-color="#D74854"/>
</linearGradient>
</defs>
</svg>
