<svg width="86" height="99" viewBox="0 0 86 99" fill="none" xmlns="http://www.w3.org/2000/svg">
<path d="M12.9079 60.3308C13.6631 60.7668 14.4537 61.0308 15.2797 61.1227C13.9149 62.4976 12.6696 64.088 11.5437 65.8939C10.9816 66.801 10.1335 67.3699 8.99966 67.6005C7.9402 67.8356 6.92805 67.6554 5.96322 67.0599C4.99838 66.4644 4.36954 65.6203 4.0767 64.5275C3.85825 63.4392 4.03011 62.4415 4.59228 61.5344C6.20864 58.9643 8.0005 56.7272 9.96786 54.8231C9.89163 55.4908 9.95472 56.1816 10.1571 56.8953C10.6053 58.3857 11.5223 59.5309 12.9079 60.3308ZM18.5326 50.588C17.9365 50.2439 17.338 50.0138 16.7371 49.8979C19.9487 48.2116 23.4964 47.1999 27.3803 46.8627C28.5219 46.752 29.5418 47.0521 30.44 47.7631C31.3381 48.4741 31.8448 49.3631 31.96 50.4304C32.1329 51.5309 31.8722 52.5158 31.1779 53.3851C30.4714 54.2089 29.5618 54.6845 28.449 54.8118C25.9201 55.064 23.5752 55.6924 21.4141 56.697C21.5826 55.8686 21.545 55.0002 21.3016 54.0918C20.8412 52.5559 19.9182 51.3879 18.5326 50.588ZM17.8768 54.424C17.9256 54.6061 17.9517 54.7943 17.9549 54.9887C17.9981 55.5139 17.878 56.0219 17.5947 56.5127C17.2114 57.1766 16.6555 57.6062 15.9269 57.8015C15.1695 57.98 14.4444 57.8693 13.7516 57.4693C13.232 57.1694 12.8368 56.7872 12.5659 56.323C12.5171 56.1409 12.4683 55.9587 12.4195 55.7766C12.3052 55.4412 12.2404 55.1536 12.2249 54.9137C12.2517 54.4673 12.3817 54.042 12.615 53.6379C12.9983 52.9739 13.5831 52.561 14.3694 52.3991C15.0979 52.2038 15.8086 52.3062 16.5014 52.7062C16.9344 52.9562 17.2597 53.2594 17.4773 53.616C17.6416 53.8648 17.7747 54.1341 17.8768 54.424Z" fill="#477CA6"/>
<path d="M9.96785 54.8231C9.99996 54.0341 10.2245 53.2785 10.6415 52.5562C11.4081 51.2283 12.5799 50.3653 14.1569 49.9671C15.0296 49.7471 15.8897 49.724 16.7371 49.8979C17.338 50.0138 17.9365 50.2439 18.5326 50.588C19.9182 51.3879 20.8412 52.5559 21.3016 54.0918C21.545 55.0002 21.5825 55.8686 21.4141 56.697C21.3042 57.2874 21.0908 57.8571 20.774 58.4059C20.0074 59.7338 18.85 60.6052 17.3019 61.02C16.5995 61.1749 15.9254 61.2091 15.2796 61.1227C14.4537 61.0308 13.6631 60.7668 12.9079 60.3308C11.5223 59.5309 10.6053 58.3857 10.1571 56.8953C9.95471 56.1816 9.89162 55.4908 9.96785 54.8231ZM17.9549 54.9887C17.9517 54.7943 17.9256 54.6061 17.8768 54.424C17.7747 54.1341 17.6415 53.8648 17.4773 53.616C17.2597 53.2594 16.9344 52.9562 16.5014 52.7062C15.8086 52.3062 15.0979 52.2038 14.3694 52.3991C13.5831 52.561 12.9983 52.9739 12.615 53.6379C12.3817 54.042 12.2517 54.4673 12.2249 54.9137C12.2403 55.1536 12.3052 55.4412 12.4195 55.7766C12.4683 55.9587 12.5171 56.1409 12.5659 56.323C12.8368 56.7872 13.232 57.1694 13.7516 57.4693C14.4444 57.8693 15.1695 57.98 15.9269 57.8015C16.6555 57.6062 17.2114 57.1766 17.5947 56.5127C17.878 56.0219 17.9981 55.5139 17.9549 54.9887Z" fill="#334E63"/>
<path d="M68.6281 41.2722C67.8045 40.9854 66.9785 40.8743 66.1499 40.9387C67.2329 39.3325 68.1581 37.5369 68.9257 35.5519C69.3079 34.5556 70.0343 33.8379 71.1049 33.3988C72.1016 32.9693 73.1296 32.9567 74.1889 33.3609C75.2482 33.765 76.0241 34.4764 76.5166 35.495C76.9351 36.5231 76.9532 37.5354 76.571 38.5318C75.4648 41.3592 74.1238 43.8925 72.5481 46.1315C72.4979 45.4613 72.3064 44.7946 71.9739 44.1314C71.2543 42.7514 70.1391 41.7983 68.6281 41.2722ZM64.9286 51.8965C65.5786 52.1228 66.2096 52.2366 66.8216 52.238C63.9828 54.4962 60.6875 56.1548 56.9355 57.2137C55.8349 57.5364 54.7768 57.4327 53.7613 56.9026C52.7458 56.3725 52.0815 55.5941 51.7684 54.5674C51.3923 53.5187 51.4639 52.5024 51.983 51.5184C52.5226 50.5768 53.327 49.9392 54.3962 49.6056C56.8331 48.884 59.0188 47.8273 60.9533 46.4355C60.9431 47.2809 61.1427 48.1269 61.552 48.9736C62.292 50.396 63.4176 51.3703 64.9286 51.8965ZM64.8539 48.0055C64.7719 47.8358 64.711 47.6558 64.6714 47.4655C64.5306 46.9576 64.5533 46.4361 64.7397 45.9009C64.9918 45.1769 65.4574 44.6507 66.1364 44.3225C66.847 44.0051 67.58 43.978 68.3355 44.2411C68.9021 44.4384 69.3619 44.7397 69.715 45.145C69.797 45.3147 69.8791 45.4845 69.9612 45.6543C70.1363 45.9623 70.2539 46.2327 70.314 46.4654C70.3714 46.9089 70.3233 47.3511 70.1699 47.7918C69.9178 48.5158 69.4207 49.031 68.6787 49.3374C67.9996 49.6656 67.2824 49.6983 66.5268 49.4352C66.0547 49.2708 65.6783 49.0338 65.3978 48.7244C65.1898 48.5108 65.0085 48.2712 64.8539 48.0055Z" fill="#477CA6"/>
<path d="M72.5481 46.1315C72.6644 46.9125 72.5854 47.6968 72.3112 48.4844C71.8069 49.9325 70.8176 50.9998 69.3431 51.6865C68.5271 52.0661 67.6866 52.2499 66.8215 52.238C66.2096 52.2366 65.5786 52.1228 64.9286 51.8965C63.4176 51.3703 62.292 50.396 61.552 48.9736C61.1427 48.1269 60.9431 47.2809 60.9533 46.4355C60.9506 45.835 61.0535 45.2355 61.2619 44.637C61.7661 43.1889 62.7397 42.1161 64.1827 41.4185C64.8436 41.1348 65.4993 40.9748 66.1499 40.9387C66.9785 40.8743 67.8045 40.9854 68.628 41.2722C70.139 41.7983 71.2543 42.7514 71.9739 44.1314C72.3064 44.7946 72.4978 45.4613 72.5481 46.1315ZM64.6714 47.4655C64.711 47.6558 64.7719 47.8358 64.8539 48.0055C65.0085 48.2712 65.1898 48.5108 65.3978 48.7244C65.6783 49.0338 66.0546 49.2708 66.5268 49.4352C67.2823 49.6983 67.9996 49.6656 68.6787 49.3374C69.4207 49.031 69.9177 48.5158 70.1699 47.7918C70.3233 47.3511 70.3714 46.9089 70.314 46.4654C70.2539 46.2327 70.1363 45.9623 69.9612 45.6543C69.8791 45.4845 69.797 45.3147 69.7149 45.145C69.3619 44.7397 68.9021 44.4384 68.3355 44.2411C67.58 43.978 66.8469 44.0051 66.1364 44.3225C65.4574 44.6507 64.9918 45.1769 64.7397 45.9009C64.5533 46.4361 64.5306 46.9576 64.6714 47.4655Z" fill="#334E63"/>
<path d="M36.4486 95.3899L32.9622 87.8463L27.4774 85.9602L28.8919 81.8467C29.1629 81.0586 29.1123 80.2834 28.74 79.5209C28.3677 78.7584 27.7875 78.2416 26.9995 77.9706L26.9522 77.9544C26.1642 77.6834 25.3889 77.734 24.6264 78.1063C24.2452 78.2925 23.9161 78.5318 23.6393 78.8243C23.394 79.1277 23.2063 79.4685 23.0762 79.8468L18.4513 92.3737L35.3785 98.1944L36.4486 95.3899ZM26.4304 79.6255C26.8087 79.7556 27.0909 80.0112 27.277 80.3925C27.4632 80.7737 27.4912 81.1535 27.3611 81.5318C27.2311 81.91 26.9754 82.1922 26.5942 82.3784C26.2129 82.5645 25.8332 82.5925 25.4549 82.4625C25.0766 82.3324 24.7944 82.0767 24.6083 81.6955C24.4222 81.3142 24.3941 80.9345 24.5242 80.5562C24.6543 80.178 24.9099 79.8958 25.2912 79.7096C25.6724 79.5235 26.0522 79.4954 26.4304 79.6255Z" fill="#334E63"/>
<path d="M27.277 80.3925C27.0909 80.0112 26.8087 79.7556 26.4304 79.6255C26.0522 79.4954 25.6724 79.5235 25.2912 79.7096C24.9099 79.8958 24.6543 80.178 24.5242 80.5562C24.3941 80.9345 24.4222 81.3142 24.6083 81.6955C24.7944 82.0767 25.0766 82.3324 25.4549 82.4625C25.8332 82.5925 26.2129 82.5645 26.5942 82.3784C26.9754 82.1922 27.2311 81.91 27.3611 81.5318C27.4912 81.1535 27.4632 80.7737 27.277 80.3925ZM38.1944 74.6294C38.7147 73.1164 38.5602 71.6181 37.7309 70.1344C36.9331 68.6616 35.6832 67.6326 33.981 67.0473C32.3103 66.4728 30.6918 66.5155 29.1255 67.1753C27.5591 67.8351 26.5158 68.9216 25.9955 70.4346L23.6393 78.8243C23.9161 78.5318 24.2452 78.2925 24.6264 78.1063C25.3889 77.734 26.1642 77.6834 26.9522 77.9544L26.9995 77.9706C27.7875 78.2416 28.3677 78.7584 28.74 79.5209C29.1123 80.2833 29.1629 81.0586 28.8919 81.8467L27.4774 85.9602L32.9622 87.8463L33.0094 87.8625L38.1944 74.6294Z" fill="#477CA6"/>
<path d="M52.8601 73.7466L52.8136 73.7282C52.0717 73.3382 51.3028 73.243 50.507 73.4425C50.109 73.5423 49.7566 73.7084 49.4496 73.9406C49.1846 74.1573 48.9707 74.4264 48.8077 74.7478L46.9929 77.8401L42.4289 84.6199L57.8269 93.2686L59.3118 91.0103L57.3712 83.6828L52.3815 80.9369L54.2488 77.5759C54.5858 76.9053 54.6163 76.1939 54.3404 75.4416C54.0954 74.7016 53.602 74.1366 52.8601 73.7466ZM52.761 76.9872C52.5981 77.3086 52.3331 77.5253 51.9661 77.6374C51.5792 77.7094 51.2053 77.6579 50.8443 77.4829C50.4834 77.3079 50.2284 77.0463 50.0794 76.698C49.9415 76.3218 49.954 75.973 50.117 75.6517C50.2799 75.3303 50.5759 75.1258 51.0049 75.0383C51.4028 74.9385 51.7822 74.9761 52.1432 75.1511C52.5041 75.326 52.7536 75.6016 52.8916 75.9777C52.9675 76.3293 52.924 76.6658 52.761 76.9872Z" fill="#334E63"/>
<path d="M51.9662 77.6374C52.3331 77.5253 52.5981 77.3086 52.7611 76.9872C52.924 76.6658 52.9675 76.3293 52.8916 75.9777C52.7536 75.6016 52.5041 75.326 52.1432 75.1511C51.7822 74.9761 51.4028 74.9385 51.0049 75.0383C50.5759 75.1258 50.28 75.3303 50.117 75.6517C49.954 75.973 49.9415 76.3218 50.0795 76.698C50.2284 77.0463 50.4834 77.3079 50.8443 77.4829C51.2053 77.6579 51.5792 77.7094 51.9662 77.6374ZM50.5927 62.624C49.0039 62.3813 47.5911 62.6905 46.3543 63.5517C45.1065 64.4406 44.4045 65.626 44.2485 67.1077C44.1035 68.5616 44.5544 69.9137 45.6012 71.1639C46.5571 72.2817 47.137 73.4436 47.3409 74.6498L47.3244 74.6915C47.4674 75.7355 47.3569 76.785 46.9929 77.8401L48.8077 74.7478C48.9707 74.4264 49.1846 74.1573 49.4496 73.9406C49.7566 73.7084 50.109 73.5423 50.507 73.4425C51.3029 73.243 52.0717 73.3382 52.8136 73.7282L52.8601 73.7466C53.602 74.1366 54.0954 74.7016 54.3404 75.4416C54.6163 76.1939 54.5858 76.9053 54.2488 77.5759L52.3815 80.9369L57.3712 83.6828C58.2451 81.7456 58.8261 79.8692 59.1141 78.0539C59.6901 73.4263 58.1884 69.0217 54.6091 64.8402C53.5623 63.5899 52.2235 62.8512 50.5927 62.624Z" fill="#477CA6"/>
<path d="M28.05 53.15C29.35 51.8833 30 50.35 30 48.55C30 46.75 29.35 45.2167 28.05 43.95C26.7833 42.6833 25.25 42.05 23.45 42.05C21.65 42.05 20.1333 42.6833 18.9 43.95C17.6333 45.2167 17 46.75 17 48.55C17 50.35 17.6333 51.8833 18.9 53.15C20.1333 54.4167 21.65 55.05 23.45 55.05C25.25 55.05 26.7833 54.4167 28.05 53.15ZM62.1 53.15C63.3667 51.8833 64 50.35 64 48.55C64 46.75 63.3667 45.2167 62.1 43.95C60.8333 42.6833 59.3 42.05 57.5 42.05C55.7 42.05 54.1833 42.6833 52.95 43.95C51.65 45.2167 51 46.75 51 48.55C51 50.35 51.65 51.8833 52.95 53.15C54.1833 54.4167 55.7 55.05 57.5 55.05C59.3 55.05 60.8333 54.4167 62.1 53.15Z" fill="#334E63"/>
<path d="M53.9 76.05C54.8333 74.75 55.3333 73 55.4 70.8H25.5C25.5667 73 26.0667 74.75 27 76.05H53.9Z" fill="#5393C5"/>
<path d="M48.75 65.8C49.65 64.3333 50.1 62.6667 50.1 60.8C50.1 58.1333 49.1667 55.85 47.3 53.95C45.4 52.05 43.1167 51.1 40.45 51.1C37.7833 51.1 35.5 52.05 33.6 53.95C31.7 55.85 30.75 58.1333 30.75 60.8C30.75 62.6667 31.2167 64.3333 32.15 65.8H25.5V70.8H55.4V65.8H48.75ZM45.5 59.25L43.85 64.5C43.8167 64.6333 43.7333 64.75 43.6 64.85C43.4667 64.95 43.3167 65 43.15 65H37.9C37.7667 65 37.6333 64.95 37.5 64.85C37.3333 64.75 37.2333 64.6333 37.2 64.5L35.55 59.25C35.5167 59.0833 35.5167 58.9167 35.55 58.75C35.6167 58.6167 35.7167 58.4833 35.85 58.35L40.15 55.2C40.25 55.1 40.3833 55.05 40.55 55.05C40.6833 55.05 40.8333 55.1 41 55.2L45.25 58.35C45.35 58.4833 45.4333 58.6167 45.5 58.75C45.5333 58.9167 45.5333 59.0833 45.5 59.25Z" fill="#334E63"/>
<path d="M43.85 64.5L45.5 59.25C45.5333 59.0833 45.5333 58.9167 45.5 58.75C45.4333 58.6167 45.35 58.4833 45.25 58.35L41 55.2C40.8333 55.1 40.6833 55.05 40.55 55.05C40.3833 55.05 40.25 55.1 40.15 55.2L35.85 58.35C35.7167 58.4833 35.6167 58.6167 35.55 58.75C35.5167 58.9167 35.5167 59.0833 35.55 59.25L37.2 64.5C37.2333 64.6333 37.3333 64.75 37.5 64.85C37.6333 64.95 37.7667 65 37.9 65H43.15C43.3167 65 43.4667 64.95 43.6 64.85C43.7333 64.75 43.8167 64.6333 43.85 64.5Z" fill="#FF6699"/>
<path d="M58.65 52.05C59.4833 48.7167 58.7333 46.9667 56.4 46.8H51.05C51.05 46.7333 51.05 46.65 51.05 46.55C51.0833 46.3833 51.1 46.2167 51.1 46.05C51.1 43.55 50.0833 41.4 48.05 39.6C45.95 37.9 43.4333 37.05 40.5 37.05C37.5667 37.05 35.05 37.9 32.95 39.6C30.9167 41.4 29.9 43.55 29.9 46.05C29.9 46.2167 29.9167 46.3833 29.95 46.55C29.95 46.65 29.9667 46.7333 30 46.8H24.85C22.4167 46.6667 21.55 48.4167 22.25 52.05L25.5 65.8H32.15C31.2167 64.3333 30.75 62.6667 30.75 60.8C30.75 58.1333 31.7 55.85 33.6 53.95C35.5 52.05 37.7833 51.1 40.45 51.1C43.1167 51.1 45.4 52.05 47.3 53.95C49.1667 55.85 50.1 58.1333 50.1 60.8C50.1 62.6667 49.65 64.3333 48.75 65.8H55.4L58.65 52.05Z" fill="#477CA6"/>
<path d="M77.0289 27.7518C76.9378 27.7762 76.9029 27.7368 76.924 27.6335C76.9163 27.5136 76.9313 27.3876 76.9691 27.2554L78.719 24.2243C78.769 24.1377 78.879 24.0472 79.0489 23.9529C79.1233 23.9574 79.2038 23.9846 79.2904 24.0346C80.8904 24.9968 81.9343 26.3885 82.4224 28.2099L82.4657 28.2349C82.9782 30.1473 82.7633 31.9862 81.821 33.7516C80.8333 35.5292 79.4121 36.6909 77.5574 37.2367L77.3525 37.2916C77.5219 36.9616 77.6475 36.6108 77.7292 36.2389C78.0681 34.9729 77.9246 33.7546 77.2989 32.5842C77.6256 32.3518 77.8894 32.0615 78.0904 31.7133C78.416 31.016 78.5184 30.3053 78.3976 29.5812C78.3687 29.5646 78.3337 29.5251 78.2927 29.4629C78.1263 28.751 77.7051 28.1807 77.0289 27.7518ZM67.5386 35.0898C67.3297 34.8989 67.1176 34.6995 66.9025 34.4916C65.5026 33.183 64.7741 31.5115 64.7169 29.4771C64.7176 27.476 65.3888 25.7466 66.7307 24.2889C66.7474 24.2601 66.7641 24.2312 66.7807 24.2023C68.1304 22.8646 69.7336 22.1544 71.5904 22.0717C71.7103 22.0639 71.8136 22.0851 71.9002 22.1351C71.9412 22.1973 71.9512 22.28 71.9301 22.3833L72.0939 25.9996C72.1183 26.0907 72.1138 26.1651 72.0805 26.2228C71.9561 26.305 71.8483 26.3582 71.7573 26.3826C71.0377 26.4291 70.4079 26.7198 69.8681 27.2549C69.8514 27.2838 69.8347 27.3126 69.8181 27.3415C69.3071 27.8933 69.0581 28.5578 69.0712 29.3352C69.0901 29.9506 69.2449 30.4826 69.5355 30.9311C68.6613 31.6895 68.0597 32.6315 67.7306 33.7573C67.6226 34.201 67.5586 34.6451 67.5386 35.0898Z" fill="#BFD4E5"/>
<path d="M75.3646 39.4348C74.1706 40.1695 72.8735 40.3829 71.4732 40.0749C70.1185 39.7546 69.0533 38.9664 68.2774 37.7102C67.8009 36.8599 67.5546 35.9864 67.5386 35.0898C67.5585 34.6451 67.6225 34.201 67.7306 33.7573C68.0597 32.6315 68.6613 31.6895 69.5355 30.9311C69.7262 30.7903 69.9211 30.6526 70.1202 30.5182C71.3431 29.8 72.6463 29.6094 74.0299 29.9463C75.3968 30.3121 76.4476 31.092 77.1824 32.286C77.2364 32.3795 77.2752 32.4789 77.2989 32.5842C77.9246 33.7546 78.0681 34.9729 77.7292 36.2389C77.6475 36.6108 77.5219 36.9616 77.3525 37.2916C76.9589 38.184 76.2962 38.8984 75.3646 39.4348Z" fill="#5393C5"/>
<path d="M8.50872 74.7063C8.584 74.6495 8.6312 74.673 8.65031 74.7767C8.70243 74.885 8.73573 75.0074 8.75021 75.1441L8.26379 78.6101C8.2499 78.7091 8.18185 78.8342 8.05966 78.9854C7.98901 79.0091 7.90417 79.014 7.80514 79.0001C5.96125 78.7077 4.47177 77.8086 3.3367 76.303L3.28719 76.296C2.09536 74.7151 1.60542 72.9297 1.81735 70.9398C2.06693 68.9216 2.94919 67.312 4.46413 66.1109L4.63352 65.9832C4.60009 66.3526 4.61515 66.7249 4.6787 67.1003C4.83905 68.4011 5.4286 69.4768 6.44733 70.3274C6.23162 70.6653 6.09582 71.0333 6.03994 71.4315C5.99941 72.1999 6.17083 72.8972 6.55421 73.5232C6.58722 73.5278 6.63442 73.5513 6.6958 73.5936C7.11682 74.1912 7.72113 74.5621 8.50872 74.7063ZM14.5571 64.3465C14.8224 64.4452 15.0937 64.5506 15.3711 64.6627C17.1594 65.3513 18.4612 66.6279 19.2766 68.4926C20.026 70.3481 20.0518 72.203 19.354 74.0573C19.3494 74.0903 19.3447 74.1233 19.3401 74.1563C18.5902 75.9024 17.37 77.1616 15.6796 77.9342C15.5713 77.9863 15.4676 78.0054 15.3686 77.9915C15.3072 77.9493 15.267 77.8763 15.2479 77.7726L13.7407 74.4813C13.6839 74.406 13.6602 74.3353 13.6695 74.2693C13.754 74.1465 13.8339 74.0568 13.9092 74C14.559 73.6873 15.0338 73.1817 15.3338 72.4833C15.3384 72.4503 15.3431 72.4173 15.3477 72.3843C15.6147 71.6813 15.5964 70.9718 15.293 70.2561C15.0448 69.6925 14.7019 69.2573 14.2644 68.9505C14.7907 67.9197 14.9954 66.8209 14.8786 65.6539C14.8125 65.202 14.7053 64.7663 14.5571 64.3465Z" fill="#BFD4E5"/>
<path d="M5.67326 63.2512C6.50485 62.1225 7.62745 61.4386 9.04106 61.1994C10.417 60.9886 11.7 61.3201 12.8901 62.194C13.6506 62.8038 14.2063 63.5213 14.5571 64.3465C14.7053 64.7663 14.8124 65.202 14.8785 65.6539C14.9953 66.8209 14.7906 67.9197 14.2644 68.9505C14.1403 69.1525 14.0112 69.3532 13.877 69.5525C13.0124 70.6765 11.8756 71.3416 10.4666 71.5478C9.0623 71.721 7.79578 71.3918 6.66709 70.5602C6.58202 70.4937 6.50876 70.4161 6.44731 70.3274C5.42858 69.4768 4.83903 68.4011 4.67868 67.1003C4.61513 66.7249 4.60007 66.3526 4.6335 65.9832C4.66394 65.0083 5.01053 64.0977 5.67326 63.2512Z" fill="#5393C5"/>
<path d="M56.5948 38.6C52.6756 36 47.9273 34.7 42.35 34.7C36.7727 34.7 31.9742 36 27.9545 38.6C24.0353 41.2667 22.0757 44.45 22.0757 48.15C22.0757 51.85 24.0353 55 27.9545 57.6C31.9742 60.2667 36.7727 61.6 42.35 61.6C47.9273 61.6 52.6756 60.2667 56.5948 57.6C60.6145 55 62.6243 51.85 62.6243 48.15C62.6243 44.45 60.6145 41.2667 56.5948 38.6Z" fill="url(#paint0_radial_6_4318)"/>
<path d="M53.2534 32.2178C56.2499 28.4272 57.4557 24.133 56.8706 19.3352C56.2855 14.5374 54.0812 10.6423 50.2575 7.64983C46.4338 4.65734 42.1231 3.45363 37.3253 4.0387C32.5275 4.62376 28.6324 6.82814 25.6399 10.6518C22.6474 14.4755 21.4437 18.7862 22.0287 23.584C22.6138 28.3818 24.8162 32.2604 28.6358 35.2198C32.4635 38.2454 36.7763 39.4656 41.5741 38.8805C46.3719 38.2955 50.265 36.0746 53.2534 32.2178ZM49.3265 20.2552C49.6574 22.9684 48.9802 25.4016 47.2952 27.5548C45.581 29.745 43.3673 31.0056 40.6541 31.3364C37.9409 31.6673 35.5057 30.9737 33.3485 29.2555C31.1623 27.5744 29.9037 25.3773 29.5729 22.664C29.242 19.9508 29.9356 17.5156 31.6538 15.3584C33.3349 13.1722 35.532 11.9137 38.2452 11.5828C40.9585 11.2519 43.4102 11.9436 45.6005 13.6577C47.7536 15.3428 48.9956 17.542 49.3265 20.2552Z" fill="#BFD4E5"/>
<path d="M47.2952 27.5548C48.9803 25.4016 49.6574 22.9684 49.3265 20.2552C48.9956 17.542 47.7536 15.3428 45.6005 13.6577C43.4102 11.9436 40.9585 11.2519 38.2453 11.5828C35.532 11.9137 33.3349 13.1722 31.6538 15.3584C29.9357 17.5156 29.242 19.9508 29.5729 22.664C29.9037 25.3773 31.1623 27.5744 33.3485 29.2555C35.5057 30.9737 37.9409 31.6673 40.6541 31.3364C43.3673 31.0056 45.581 29.745 47.2952 27.5548Z" fill="white"/>
<path d="M22.7818 12.4107C22.1975 12.8513 21.8505 13.4477 21.7407 14.1999L20.5495 22.6059C20.4397 23.358 20.6092 24.0593 21.0579 24.7098C21.5647 25.286 22.1942 25.629 22.9463 25.7388L22.996 25.7327C23.7481 25.8425 24.4349 25.6916 25.0563 25.28C25.6656 24.7692 26.0252 24.1377 26.1349 23.3855L27.2765 14.9856C27.3863 14.2334 27.2023 13.5507 26.7245 12.9373C26.2799 12.3199 25.698 11.9544 24.9789 11.8406L24.9293 11.8466C24.1771 11.7369 23.4613 11.9249 22.7818 12.4107Z" fill="#477CA6"/>
<path d="M55.044 10.1387C54.7567 9.435 54.2765 8.93948 53.6034 8.65217C52.8271 8.34388 52.087 8.33339 51.3833 8.62069L51.3336 8.62674C50.6299 8.91404 50.1364 9.41076 49.8531 10.1169C49.5368 10.8271 49.5223 11.534 49.8096 12.2378L52.986 20.1112C53.2733 20.8149 53.774 21.3415 54.4882 21.6909C55.1904 21.9411 55.8933 21.9226 56.597 21.6353L56.6466 21.6292C57.3173 21.3459 57.8293 20.8637 58.1828 20.1826C58.4621 19.4434 58.458 18.7219 58.1707 18.0182L55.044 10.1387Z" fill="#477CA6"/>
<path d="M16.5498 32.7647C15.1843 34.5095 14.6347 36.4738 14.901 38.6576C15.1673 40.8415 16.1708 42.5996 17.9116 43.932C19.6935 45.3265 21.6598 45.8927 23.8105 45.6304C25.9943 45.3641 27.7835 44.34 29.1781 42.5581C30.5145 40.8504 31.0496 38.9047 30.7833 36.7209C30.517 34.5371 29.528 32.7604 27.8163 31.3908C26.0344 29.9963 24.0515 29.4322 21.8677 29.6985C19.717 29.9607 17.9443 30.9828 16.5498 32.7647ZM19.9283 41.4698C18.8889 40.6563 18.2885 39.5878 18.1271 38.2642C17.9697 36.9738 18.2958 35.7923 19.1052 34.7198C19.9187 33.6803 20.9707 33.0819 22.2611 32.9246C23.6177 32.7591 24.8158 33.0832 25.8552 33.8966C26.8987 34.7432 27.4991 35.8117 27.6565 37.1022C27.8179 38.4257 27.4918 39.6072 26.6783 40.6466C25.8689 41.7192 24.7858 42.3382 23.4292 42.5036C22.1388 42.6609 20.9718 42.3163 19.9283 41.4698ZM58.5956 25.2197C56.4448 25.482 54.6722 26.504 53.2776 28.286C51.9121 30.0307 51.3625 31.995 51.6289 34.1789C51.8952 36.3627 52.8987 38.1208 54.6394 39.4532C56.4213 40.8478 58.3877 41.4139 60.5384 41.1516C62.7222 40.8853 64.5114 39.8612 65.906 38.0793C67.2424 36.3717 67.7775 34.4259 67.5112 32.2421C67.2449 30.0583 66.2559 28.2816 64.5442 26.9121C62.7623 25.5175 60.7794 24.9534 58.5956 25.2197ZM60.1571 38.0248C58.8667 38.1822 57.6997 37.8376 56.6562 36.991C55.5837 36.1815 54.9667 35.115 54.8053 33.7915C54.648 32.5011 54.9905 31.3176 55.8331 30.241C56.6466 29.2016 57.6985 28.6031 58.989 28.4458C60.3125 28.2844 61.5105 28.6084 62.5831 29.4179C63.6266 30.2645 64.227 31.333 64.3843 32.6234C64.5457 33.9469 64.2197 35.1284 63.4062 36.1679C62.5637 37.2444 61.4806 37.8634 60.1571 38.0248Z" fill="#5393C5"/>
<path d="M18.1271 38.2642C18.2885 39.5878 18.8889 40.6563 19.9283 41.4698C20.9718 42.3163 22.1388 42.6609 23.4292 42.5036C24.7858 42.3382 25.8689 41.7192 26.6783 40.6466C27.4918 39.6072 27.8179 38.4257 27.6565 37.1022C27.4991 35.8117 26.8987 34.7432 25.8552 33.8966C24.8158 33.0832 23.6177 32.7591 22.2611 32.9246C20.9707 33.0819 19.9187 33.6803 19.1052 34.7198C18.2958 35.7923 17.9697 36.9738 18.1271 38.2642ZM56.6562 36.991C57.6997 37.8376 58.8667 38.1822 60.1571 38.0248C61.4806 37.8634 62.5637 37.2444 63.4062 36.1679C64.2197 35.1284 64.5457 33.9469 64.3843 32.6234C64.227 31.333 63.6266 30.2645 62.5831 29.4179C61.5105 28.6084 60.3125 28.2844 58.989 28.4458C57.6986 28.6031 56.6466 29.2016 55.8331 30.241C54.9906 31.3176 54.648 32.5011 54.8053 33.7915C54.9667 35.115 55.5837 36.1815 56.6562 36.991Z" fill="#477CA6"/>
<path d="M25.2523 50.8442L33.1934 49.8758C32.3695 43.3946 28.7798 39.5677 22.4245 38.395L25.2523 50.8442ZM54.9324 47.2249C58.4163 46.3299 60.2047 44.1978 60.2975 40.8284L60.1317 32.0338C54.518 35.8414 51.9908 41.0019 52.55 47.5154L54.9324 47.2249Z" fill="#334E63"/>
<path d="M60.1317 32.0338L59.8231 15.0463L18.2809 20.1122L22.4245 38.395C28.7799 39.5677 32.3695 43.3946 33.1934 49.8758L52.55 47.5154C51.9908 41.0019 54.518 35.8414 60.1317 32.0338Z" fill="#5393C5"/>
<path d="M47.2031 35.4741C48.5686 33.7293 49.1182 31.765 48.8519 29.5812C48.5816 27.3643 47.576 25.5896 45.8353 24.2572C44.0905 22.8917 42.1262 22.3421 39.9424 22.6084C37.7254 22.8788 35.9508 23.8843 34.6184 25.6251C33.2488 27.3368 32.6992 29.3011 32.9696 31.518C33.2359 33.7018 34.2414 35.4765 35.9862 36.842C37.6979 38.2115 39.6622 38.7611 41.8791 38.4908C44.0629 38.2244 45.8376 37.2189 47.2031 35.4741ZM46.2214 29.902C46.3989 31.3579 46.0208 32.6632 45.0871 33.8181C44.1905 35.002 43.0142 35.6827 41.5583 35.8602C40.0694 36.0418 38.7309 35.6678 37.543 34.738C36.3922 33.8374 35.728 32.6591 35.5505 31.2033C35.3689 29.7143 35.7264 28.3778 36.623 27.1939C37.5608 26.0722 38.7742 25.4205 40.2631 25.2389C41.719 25.0614 43.0203 25.4064 44.1671 26.274C45.3551 27.2037 46.0398 28.413 46.2214 29.902Z" fill="#477CA6"/>
<path d="M45.0871 33.8181C46.0208 32.6632 46.3989 31.3579 46.2214 29.902C46.0398 28.413 45.355 27.2037 44.1671 26.274C43.0203 25.4064 41.719 25.0614 40.2631 25.2389C38.7741 25.4205 37.5608 26.0722 36.623 27.1939C35.7264 28.3778 35.3689 29.7143 35.5504 31.2033C35.728 32.6591 36.3922 33.8374 37.543 34.738C38.7309 35.6678 40.0694 36.0418 41.5583 35.8602C43.0142 35.6827 44.1905 35.002 45.0871 33.8181ZM43.9879 30.1743C44.0606 30.7699 43.906 31.2925 43.5243 31.742C43.2128 32.2165 42.7592 32.4901 42.1636 32.5627C41.568 32.6354 41.0289 32.4828 40.5463 32.1051C40.1009 31.7565 39.8418 31.2844 39.7692 30.6888C39.6966 30.0932 39.8325 29.5561 40.1771 29.0776C40.5589 28.6281 41.0475 28.367 41.6431 28.2944C42.2387 28.2217 42.7427 28.3618 43.1551 28.7144C43.6377 29.0921 43.9153 29.5788 43.9879 30.1743Z" fill="#FFCC00"/>
<path d="M43.5243 31.742C43.906 31.2925 44.0606 30.7699 43.9879 30.1743C43.9153 29.5788 43.6377 29.0921 43.1551 28.7144C42.7427 28.3618 42.2387 28.2217 41.6431 28.2944C41.0475 28.367 40.5589 28.6281 40.1772 29.0776C39.8326 29.5561 39.6966 30.0932 39.7692 30.6888C39.8418 31.2844 40.1009 31.7565 40.5464 32.1051C41.029 32.4828 41.568 32.6354 42.1636 32.5627C42.7592 32.4901 43.2128 32.2165 43.5243 31.742Z" fill="white"/>
<path d="M56.4323 31.0242C56.9593 30.3891 57.1744 29.6745 57.0776 28.8804C56.9807 28.0862 56.5982 27.4277 55.93 26.9047C55.2989 26.4108 54.5863 26.2123 53.7922 26.3091C52.998 26.406 52.3375 26.772 51.8105 27.4071C51.3206 28.0713 51.1241 28.8004 51.221 29.5945C51.3178 30.3887 51.6818 31.0327 52.3128 31.5266C52.977 32.0164 53.7062 32.213 54.5003 32.1161C55.2944 32.0193 55.9384 31.6553 56.4323 31.0242Z" fill="#477CA6"/>
<path d="M29.9287 34.2562C30.4557 33.6211 30.6708 32.9065 30.5739 32.1123C30.4771 31.3182 30.0946 30.6597 29.4263 30.1367C28.7952 29.6428 28.0992 29.4423 27.3382 29.5351C26.544 29.6319 25.8835 29.9979 25.3565 30.633C24.8666 31.2972 24.6701 32.0264 24.7669 32.8205C24.8638 33.6146 25.2277 34.2586 25.8588 34.7525C26.523 35.2424 27.2522 35.4389 28.0463 35.342C28.8073 35.2492 29.4348 34.8873 29.9287 34.2562Z" fill="#477CA6"/>
<path d="M50.2901 21.5481C49.308 20.9291 48.1717 20.6982 46.8812 20.8556L33.282 22.514C31.9915 22.6713 30.9275 23.1705 30.0898 24.0114C29.2892 24.8814 28.9535 25.8458 29.0826 26.9046C29.2117 27.9634 29.7673 28.8023 30.7495 29.4213C31.7688 30.0694 32.9236 30.3147 34.214 30.1573L47.8133 28.499C49.1037 28.3416 50.1492 27.8279 50.9498 26.958C51.7875 26.1171 52.1418 25.1672 52.0127 24.1084C51.8836 23.0495 51.3094 22.1961 50.2901 21.5481Z" fill="#5393C5"/>
<path d="M43.454 42.7313C43.2934 42.5158 43.0602 42.3931 42.7543 42.3633L36.7973 41.4275C36.4874 41.3645 36.1916 41.4174 35.9099 41.5861C35.6985 41.7798 35.5798 42.0461 35.554 42.385C35.4951 42.728 35.548 43.0238 35.7126 43.2724C35.9103 43.5169 36.1641 43.6706 36.474 43.7336L42.4311 44.6694C42.737 44.6992 43.0122 44.6153 43.2567 44.4176C43.4722 44.257 43.6094 44.0052 43.6683 43.6622C43.6941 43.3232 43.6227 43.0129 43.454 42.7313Z" fill="#334E63"/>
<defs>
<radialGradient id="paint0_radial_6_4318" cx="0" cy="0" r="1" gradientUnits="userSpaceOnUse" gradientTransform="translate(42.35 48.15) scale(20.4816 13.5875)">
<stop stop-opacity="0.301961"/>
<stop offset="1" stop-opacity="0"/>
</radialGradient>
</defs>
</svg>
